<?xml version="1.0" encoding="UTF-8"?>
<svg shape-rendering="geometricPrecision" text-rendering="geometricPrecision" viewBox="0 0 830.5 819.2" xmlns="http://www.w3.org/2000/svg">
<path transform="matrix(2.0491 0 0 2.0676 0 -3.308)" d="m405.3 231.3-23.2-8.6c-6.2-2.3-10.3-12.1-13.2-20.4-.4-1.2-.9-2.6-1.3-4.1-.6-2.1-1.4-4.4-2.2-6.8 18-11.1 11.9-33.3 8.5-45.5-1.5-5.3-.3-10.2 3.3-14.5l12.5-14.8-19.4-.2c-8.3-.1-13.2-1.8-15.1-3.4-1.1-1-2.5-3.9-3.8-6.4-3.9-8.1-9.8-20.5-27.8-23-1.7-.2-3.3-.4-5-.4-1.9 0-3.8.2-5.6.5-3.8-13-9.7-23.6-13.6-30.7-.8-1.4-1.5-2.7-2.1-3.8l-7.3-14-8.5 13.1c-6 9.1-12.6 12.8-20.5 14.6.3-7.8-2.9-15.7-9.1-22.2-9.9-10.4-24-15.3-33.8-18-8-2.2-12.5-6.2-14.4-8.3L191.9 1.6l-3.9 17c-2.8 12.5-10.4 17.5-20 23.8-4.7 3.1-9.6 6.3-13.9 10.7l-.4.4c-2.2 2.2-6 5.9-7.1 10.6-1.5-.3-2.8-.7-4-1.1-10.4-3.6-17.2-10.2-20.3-13.9l-15.1-17.5-1 23c-.2 4-1.6 12.8-9.3 26.5-2.6 4.6-5.3 9-7.9 13.3-4.5 7.4-9.2 15-12.7 22.9-2.2-.4-4.3-.5-6.4-.5-7.3 0-17.8 2.1-26.4 12.2-9.1 10.7-21 12.5-25.8 12.8l-17.7 1 11.1 13.9c7.5 9.4 6.6 20.1 5.6 31.5-.8 8.9-1.6 18.2 1.8 26.9 1.9 4.9 7.4 19.1 22.6 22.8-3 10.5-6.8 20.4-12.7 24.5l-12.9 9 14.2 6.8c6.6 3.2 23.6 12.1 38.5 27 2.1 2.1 4.7 4.1 7.6 5.8-1.5 9.5 1.5 18.3 8.7 25.5 3 3 6.2 6 9.3 8.9 9.7 9 20.7 19.2 20.7 27.4l.1 19.4 14.9-12.4c3.3-2.7 11-7.3 26.2-7.3 2.2 0 4.4.1 6.7.3 1.6.1 3.1.2 4.7.2 22.3 0 32.1-13.4 36.2-23 .5.1 1 .2 1.5.4 24.2 5.9 32.2 17.6 34.8 24.1l9.3 23.3 7.9-23.8c1.8-5.5 6.9-15.8 20.1-22.6 1.1-.6 2.2-1.2 3.3-1.9 4.3 2.6 8.7 3.9 13.1 3.9 6.5 0 12.7-2.7 18.4-8.1 9.9-9.2 20.1-11.1 26.9-11.1 3 0 5.4.4 6.9.7l16.7 3.3-6.5-15.8c-1.7-4.2-.1-12.9 1.3-20.7 2.1-11.5 4.2-23.4 1.1-34.9-1.4-5.1-4.2-9.5-8.3-13.1 12.5-6 26.3-11.3 32.1-13.4l23.4-9Z" fill="#cbffc7"/>
<path transform="matrix(2.0491 0 0 2.0676 0 -3.308)" d="M215.7 217.7c-1.3 0-2.4-.2-3.4-.6-4.6-2-9.8-6.5-8.5-16.1.9-6.6 8.1-8.4 12.2-8.4 1.7 0 3.3.3 4.6.7 3.6 1.4 6 4.1 8.5 7 1.2 1.4 2.4 2.8 3.7 4 2 1.8 3.6 3.2 4.8 4.2-3.1 1.1-8 3.2-10.5 5.1-2.6 2.1-7.4 4.1-11.4 4.1Z" fill="#5cdbac"/>
<path transform="matrix(2.0491 0 0 2.0676 0 -3.308)" d="M172.2 264.2c-.8 0-1.7-.1-2.6-.3-3.8-.8-8.3-4.5-13-8.4-7.5-6.2-16-13.2-26.3-13.2-4.1 0-8.3 1.2-12.4 3.5-.3-7.4-.1-29.9 13.5-42 4.7-4.1 9.4-5.8 15.2-3.2 6 2.6 7.7 8 12.1 12 5 4.5 6.9 9.2 6.1 16-.4 2.9-1.2 5.6-2 8.2l-.7 2.2c-.3 1-.6 1.9-1 2.9l-1.1 3.5 3.3-1.7c1.2-.6 2.3-1.3 3.5-2 3.3-1.9 6.8-4 10.5-4.3l.7-.1c.9-.1 1.8-.2 2.7-.2 1.6 0 2.7.3 3.6 1 2.3 1.7 1.7 6.3 1.1 8.9-2.5 11.4-7 17.2-13.2 17.2Z" fill="#2e8e6b"/>
<path transform="matrix(2.0491 0 0 2.0676 0 -3.308)" d="M168.9 234.6c.4-1.4.8-3.2 1-5.4.3-2 .2-4 .2-6.2 0-4.7-.1-9.6 3.1-13.9 1.8-2.4 3.9-3.6 6.9-4.1 1.1-.2 2.9-.4 5-.4 3.1 0 5.6.5 7.2 1.4.5.3.9.6 1.3.9 2.6 2.5 1.4 9.3-.6 14.9-2.4 6.8-9.9 9.8-16.2 10.4-3 .3-5.8 1.4-7.9 2.4Zm21.4-34c-1.7 0-5.4-.8-11.9-6.3-8.1-6.8-6.2-22.3-4-27 1.4-3 2.1-6.2 2.5-8.5 2.3 2.3 5.2 3.6 7.9 4.9 5.3 2.5 10.3 4.9 12.2 13.5 2.2 12.1.5 19.8-4.9 22.9-.5.3-1 .5-1.8.5Z" fill="#5cdbac"/>
<path transform="matrix(2.0491 0 0 2.0676 0 -3.308)" d="M200.4 164.4c-.7 0-1.4-.1-2-.2-2.8-.5-5.3-1.8-8-3.3-1.1-.6-2.3-1.3-3.4-1.8-3.5-1.7-6.4-3-8.2-6-2-3.2-2.6-5.9-2-8.3 1.3-4.6 7.3-7.8 13.2-10.9 4.3-2.3 8.7-4.6 11.4-7.6 4.4-4.8 7.1-12.4 8.3-16.4 5.7 5.8 22.7 23.9 24 36 .6 5.4-6 9.4-9.2 11.3l-.6.3c-4.6 2.8-9.7 4.2-13.3 4.8-1.1.2-2.2.5-3.4.7-2.2.8-4.5 1.4-6.8 1.4Z" fill="#2e8e6b"/>
<path transform="matrix(2.0491 0 0 2.0676 0 -3.308)" d="M166.4 211.3c-.8-.3-1.5-.6-2.1-.9-3.3-2-5.2-5.1-7.1-8.4-.9-1.5-1.9-3.1-3-4.6 0 0-2.2-2.9-4-5.1 3.3-.6 8.2-1.5 11.3-3.1 1.9-1 4.4-1.7 6.9-2 1.2 4.7 3.4 8.5 6.6 11.1.5.4.7.9.7 1.5 0 .3-.1.9-.7 1.2-2.4 1.5-4.4 3.2-5.9 5.2-1.1 1.5-2 3.2-2.7 5.1Zm45.1 34.1c-2.5-2.1-6.7-5.4-9.6-6.6-1.7-.7-3.8-2.1-5.5-3.6-2-1.8-2.3-5-.6-7.3.9-1.3 1.6-2.7 2.2-4.2.4-1 .5-2.5.7-4.1.3-2.5.6-5.7 1.8-6.8 1.5 2.8 3.4 5.1 5.9 6.9 2.2 1.6 4.2 2 6.2 2.5.8.2 1.6.4 2.5.6.4.1.6.3.9.5 2 1.8-.3 8.1-1.7 11.9-.6 1.6-1.1 3-1.4 4.1-.8 2.4-1.2 4.5-1.4 6.1Zm-9.2-52.4c0-.7.3-1.9.4-2.5.2-.7.3-1.3.3-1.8.1-2.4 0-5-.3-8-.1-1-.3-2-.6-3.1-.9-3.8-1.3-6.6.6-8.1 2-1.5 5.6-1.7 8.9-1.9 1.9-.1 3.7-.2 5.3-.5 2.6-.6 4.7-1.1 6.2-1.5-.8 3.2-2 8.4-1.8 11.6.2 3.3-.5 8.5-2.1 9.9-.9.8-2.8.8-4.7.8-1.4 0-2.9 0-4.2.4-2 .6-3.8 1.4-5.4 2.5-.4.3-.8.7-1.2 1.1-.5.3-1 .9-1.4 1.1Zm-45 69.6c-1.3-1-2.6-2.1-3.9-3.1-6.8-5.6-14.6-12-23.1-12-3.9 0-7.7 1.3-11.7 4l-4.9 3.3-.6-5.9c-.1-.9-2.4-23.3 7.8-40 1.9-3.1 1.3-7.2-1.4-9.7-5.1-4.6-9.4-10.4-12.7-17.2-2-4.2-6.1-6.8-10.8-6.8-6.2.1-12.6 1.5-18.9 4.4-13.3 6-18.4 26.2-23.4 45.8-4.7 18.5-9.1 36-20 43.6 6.8 3.2 25.1 12.8 41.1 28.8 6.4 6.4 16.7 9.9 29.1 9.9 19.9 0 44.9-9.7 54.1-28.1.9-1.7 1.7-3.5 2.4-5.1 1.7-4.3.4-9.1-3.1-11.9Zm-57.5-28.3c-5.1 0-5.1-7.9 0-7.9s5.1 7.9 0 7.9Zm3.8-20.4c-6.8 0-6.8-10.5 0-10.5 6.8-.1 6.8 10.5 0 10.5Zm178.9 67.2c-.6-1.1-1.4-2.6-2.2-4.3-3.4-6.8-9-18.3-14.8-19-.4-.1-.8-.1-1.1-.1-1.8 0-3.2.6-4.5 1.9-3 3.1-4 9.3-3.9 14.1l.1 5.6-5.1-2.3c-2.3-1-7-1.5-12.6-1.5-5 0-10.2.5-13.8 1.2-2 .4-5.2.9-9.1.9-8.5 0-20.4-2.4-28.7-14-.4-.5-1-.9-1.6-.9-.4 0-.9.1-1.3.6-3.3 4.2-9.3 5.4-13.6 8.3-4.4 3-7.8 7.1-10.7 11.5-4.6 7.1-7.4 15.6-4.5 23.9 6.7 19.4 13.4 23.8 51.9 33.1 28.2 6.8 37.9 21.5 41.1 29.6 2.4-7.2 8.7-19.7 24.6-27.8 7.3-3.8 12.4-10 15-18.5 4.5-14.5.6-31.7-5.2-42.3Zm-102.9 7.1c-6.8 0-6.8-10.5 0-10.5s6.8 10.5 0 10.5Zm19.5 3.5c-5.3 0-5.3-8.2 0-8.2s5.3 8.2 0 8.2Zm161.2-87.4c-.5-1.4-.9-2.8-1.4-4.4-3.7-12.1-8.8-28.6-36-35.1-5-1.2-10.5-1.8-15.5-1.8-7.5 0-13.5 1.5-17.5 4.2-8.4 5.8-9.6 18.7-10.5 27.3-1 9.9-4.7 17.4-10.9 21.8-3.1 2.2-4 6.6-1.9 10.2 1 1.8 1.8 3.8 2.3 5.9 1.4 5.7.5 12.1-2.3 17.3 2.7 2.3 5.3 5.3 8.1 9 3.2 4.3 7.9 7.1 12.9 7.6 1.2.1 2.4.2 3.6.2 11 0 25-4.9 39.3-13.9 14.3-8.9 38.2-18.3 48.5-22.2-9.6-3.6-14.7-14.5-18.7-26.1Zm-75.4 19.8c-6.8 0-6.8-10.5 0-10.5s6.8 10.5 0 10.5Z" fill="#5cdbac"/>
<path transform="matrix(2.0491 0 0 2.0676 0 -3.308)" d="M79.4 161.8c-1.9-3.3-3.3-7.1-4-11.4-1.5-8.1-.9-16.2 1.7-24.7-2.4-.6-4.8-.9-7.2-.9-5.4 0-13.1 1.6-19.4 9-11.2 13.2-25.7 15.7-32.2 16 9.8 12.3 8.6 25.9 7.6 38-.7 8.2-1.4 16 1.2 22.8 4.5 11.6 10.3 16.9 19.3 17.7l1.4-1 .9-3.4c5.3-20.7 10.7-42.2 26.4-49.2 2.4-1.1 4.3-3.1 5.1-5.6s.5-5.1-.8-7.3Zm-15.3 6.8c-6.8 0-6.8-10.5 0-10.5 6.8-.1 6.8 10.5 0 10.5Zm86.2 139.9c-1.1-3.4-4.1-5.6-7.5-5.6-1.2 0-2.3.3-3.4.9-10.7 5.6-23.7 8.8-35.6 8.8-6.7 0-13-1-18.6-3-1.6 7.2.4 13.6 5.9 19.1 2.9 2.9 6 5.8 9.1 8.6 11.6 10.8 23.6 21.9 23.7 34.1 4.6-3.8 14.3-9.4 32-9.4 2.4 0 4.9.1 7.5.3 1.3.1 2.6.2 3.9.2 18.6 0 25.9-11.8 28.7-19.9-31-8.1-38.8-14-45.7-34.1Zm-8.9 21.3c-6.8 0-6.8-10.5 0-10.5 6.8-.1 6.8 10.5 0 10.5Zm208.1-62c-1.5-5.7-5.9-10.1-12.9-13.1-1.2.7-2.4 1.4-3.5 2.1-8.8 5.5-25.9 14.7-42.2 14.7-1.7 0-3.2.9-4.1 2.3-.8 1.4-.8 3 0 4.5l.2.3c6.4 11.6 10.6 30.4 5.8 46.3-1.8 5.8-4.6 10.8-8.5 14.8 3.1 2.1 6.2 3.1 9.2 3.1 4.1 0 8.2-1.9 12.2-5.6 12-11.2 24.7-13.5 33.2-13.5 3.6 0 6.6.4 8.7.8-2.7-6.6-1-16 .7-25.8 1.8-10.5 3.8-21.4 1.2-30.9ZM304.2 287c-6.8 0-6.8-10.5 0-10.5s6.8 10.5 0 10.5Zm66-162.6c-5.8-.1-15.5-1-20.9-5.6-2.6-2.2-4.3-5.8-6.1-9.5-3.6-7.5-7.6-16-20.9-17.9-1.2-.2-2.5-.3-3.7-.3-2.7 0-5.2.5-7.5 1.4 2.4 12.3 2.2 24.4-.5 36.1-1.8 7.5-4.2 14.3-7.2 20-1.1 2.1-1 4.3.2 6.3s3.3 3.1 5.6 3.1h.2c4.9 0 9.8.6 14.6 1.7 16.3 3.9 27.5 11.7 34.1 24.1 15.1-7 10.4-24 7-36.6-3-10.8 1.8-18.8 5.1-22.8Zm-47.1 25.1c-6.8 0-6.8-10.5 0-10.5s6.8 10.5 0 10.5Zm4.5-18.9c-5.1 0-5.1-7.9 0-7.9s5.1 7.9 0 7.9Zm-157.4 21.1c-2-2.9-4.9-4.6-8.8-5.2-1.2-.2-2.4-.3-3.6-.3-6.2 0-13.1 2.2-18.4 5.8-9.3 6.4-18.1 9.6-26.3 9.6-3.4 0-6-.6-7.8-1.2 1.6 8.9 4.6 17.7 9.6 25.3 2.7 4.2 6 9.5 10.9 11.5 1 .4 1.9.6 2.8.6 1.7 0 3.2-.7 5-1.7 3.3-1.7 6.9-2.8 10.6-3.3l-4.3-4.4 7-1c3.5-.5 9.9-1.8 12.5-3.1 2.3-1.2 5.4-2.1 8.4-2.5-.6-6.6.5-13.4 2.1-16.9 2.5-5.8 2.7-9.8.3-13.2ZM157 177.3c-5.1 0-5.1-7.9 0-7.9s5.1 7.9 0 7.9Zm106.8 56.2c-1.6-6.5-6.7-11.5-14.4-14.1-1-.3-2.2-.8-3.4-1.2-3.1-1.2-6.7-2.6-9.5-2.6-2.5 0-5.7 2-7.9 3.8-4.9 4.1-7.4 10.5-9.5 16.2-.6 1.6-1.1 3.1-1.5 4.7-1.2 5.1-1.6 8.4-1.6 8.4l-.7 7.1-5.3-4.8c-2.6-2.3-7.7-6.5-10.3-7.6-1-.4-2.1-1.2-3.3-2.1-1.6-1.2-3.5-2.6-4.7-2.6-.3 0-.5.1-.8.4-.7 1-.6 2.9-.5 4.8.1 1.5.2 3-.1 4.3-.9 4.1-1.6 8.4.1 11.8 2 4 6.7 7.4 10.6 9.3 4.2 2.1 9.2 3.2 14.4 3.2 2.7 0 5.4-.3 8-.8 4-.8 9.5-1.3 14.9-1.3 3.2 0 8.5.2 12.5 1.3.3-4.3 1.7-13.9 8.4-20.9 4.4-4.4 6.1-11.2 4.6-17.3Zm-27 2.2c-5.1 0-5.1-7.9 0-7.9s5.1 7.9 0 7.9Zm19.7-74.1c-4.1-4.1-7.6-7.6-13.6-7.6-.6 0-1.2 0-1.9.1-6.9.8-10.4 3.7-12.3 10.2-.7 2.4-2.2 9.4-2.4 12.8-.1 1.2-.2 2.4-.3 3.5-.3 2.9-.6 5.1.5 7.9 1 2.6 2.9 4.6 4.9 6.8.5.6 1.1 1.2 1.6 1.8 1.1 1.2 2.2 2.5 3.4 3.6 2.2 2 4 3.6 5.7 4.9.2.2.5.3.9.5 1.2.7 2.3 1.4 2.7 2.4.6 1.6-.3 2.7-.8 3.3-.2.3-.4.5-.4.5 0 .1.2.9 2.9 1.6 2.8.7 5.2 1.1 7.5 1.1h.3c3.9 0 7.4-1 10.2-3 6.6-4.6 8.4-13.4 8.8-18.2 1-10.4 3.4-17.8 4.8-21.3-11.7 0-17.4-5.8-22.5-10.9Zm-18.9 28.9c-5.1 0-5.1-7.9 0-7.9s5.1 7.9 0 7.9Zm2.5-14c-5.1 0-5.1-7.9 0-7.9s5.1 7.9 0 7.9Zm5.2-130.6c-7.7-8.1-19.1-12.5-29.6-15.5-9.9-2.8-15.8-7.8-18.7-10.9-3.7 16.1-14 22.9-23.9 29.5-4.5 3-8.8 5.8-12.5 9.5-1.5 1.5-5.6 5.3-5.1 7.6.5 2.2 4.2 3 5.9 3.1 15.3 1.7 31.1 3.5 39.8 15.9 1 1.5 2.7 2.4 4.5 2.4s3.4-.9 4.3-2.4c2.5-4.2 6.2-7.7 10.9-10.6 4.7-2.8 9.9-4.5 15.2-5.5 5.8-1.1 15.2.6 15.6-7.5.4-5.9-2.4-11.4-6.4-15.6Zm-43.1 25.5c-6.8 0-6.8-10.5 0-10.5s6.8 10.5 0 10.5Z" fill="#2e8e6b"/>
<path transform="matrix(2.0491 0 0 2.0676 0 -3.308)" d="M196.9 88c-7.3-10.4-21.9-12-36-13.6-7.7-.9-14.9-1.7-21.2-3.8-12.2-4.2-20.2-11.8-24.3-16.6-.3 5.6-2.2 15.8-10.5 30.6-2.6 4.7-5.4 9.2-8.1 13.6-10.7 17.4-19.9 32.5-16.4 51.4 1.6 8.6 5.7 14.8 12.3 18.4.8.4 1.7.7 2.5.7 5.4 0 5.1-6.1 4.5-9.9l-1.2-7.7 6.6 4.1s2.9 1.6 7.9 1.6c7 0 15.1-3 23.4-8.7 6.5-4.4 13.1-6.7 19.8-6.7s12.5 2.5 18.1-3c4.2-4.1 9.9-7.2 14.5-9.7 3.7-2 7.2-3.9 8.8-5.6 4-4.4 7.3-11 7.6-17.1.4-6.2-5-13.3-8.3-18Zm-41.1 44c-6.8 0-6.8-10.5 0-10.5 6.8-.1 6.8 10.5 0 10.5Zm12.5-22.2c-4.9 0-4.9-7.6 0-7.6s4.9 7.6 0 7.6Zm123.1-53.5c-.8-1.5-1.6-2.9-2.2-4-11.6 17.7-26.3 19.1-40.5 20.5-8.9.8-17.4 1.6-25.1 6.3-6.1 3.6-10.5 9.2-11.9 16.2-.5 2.3-1.1 6.1-.4 8.4 1 3.4 4.8 5.5 7.1 8 2.8 3.1 5.6 6.4 8.2 9.7 3.4 4.4 6.6 9 9.1 14 2.1 4.4 1.7 12.1 7.3 13.6 3.6.9 6.6.8 10 2.9 2.8 1.7 5.2 4.1 7.5 6.4 4 4 9.6 6.3 15.3 6.3 5.4 0 10.5-2 14.3-5.7 7.3-7 12.6-17.5 15.8-31.2 7.2-32.2-6.9-57.7-14.5-71.4Zm-56.8 58.4c-4.5 0-4.5-6.9 0-6.9s4.5 6.9 0 6.9Zm15.8 19.8c-6.8 0-6.8-10.5 0-10.5 6.8-.1 6.7 10.5 0 10.5Z" fill="#5cdbac"/>

</svg>
